<?xml version="1.0" encoding="UTF-8" standalone="no"?>
<svg
   xmlns:dc="http://purl.org/dc/elements/1.1/"
   xmlns:cc="http://creativecommons.org/ns#"
   xmlns:rdf="http://www.w3.org/1999/02/22-rdf-syntax-ns#"
   xmlns:svg="http://www.w3.org/2000/svg"
   xmlns="http://www.w3.org/2000/svg"
   xmlns:sodipodi="http://sodipodi.sourceforge.net/DTD/sodipodi-0.dtd"
   xmlns:inkscape="http://www.inkscape.org/namespaces/inkscape"
   version="1.1"
   id="Ebene_1"
   x="0px"
   y="0px"
   width="226.77966"
   height="226.77966"
   viewBox="0 0 226.77966 226.77966"
   enable-background="new 0 0 320 320"
   xml:space="preserve"
   inkscape:version="0.91 r13725"
   sodipodi:docname="apple_icon.svg"><metadata
     id="metadata11"><rdf:RDF><cc:Work
         rdf:about=""><dc:format>image/svg+xml</dc:format><dc:type
           rdf:resource="http://purl.org/dc/dcmitype/StillImage" /><dc:title>Rounded Corners</dc:title></cc:Work></rdf:RDF></metadata><defs
     id="defs9" /><sodipodi:namedview
     pagecolor="#ffffff"
     bordercolor="#666666"
     borderopacity="1"
     objecttolerance="10"
     gridtolerance="10"
     guidetolerance="10"
     inkscape:pageopacity="0"
     inkscape:pageshadow="2"
     inkscape:window-width="1920"
     inkscape:window-height="1056"
     id="namedview7"
     showgrid="false"
     fit-margin-top="0"
     fit-margin-left="0"
     fit-margin-right="0"
     fit-margin-bottom="0"
     inkscape:zoom="2.95"
     inkscape:cx="117.25458"
     inkscape:cy="114.96253"
     inkscape:window-x="1920"
     inkscape:window-y="24"
     inkscape:window-maximized="1"
     inkscape:current-layer="Ebene_1" /><title
     id="title3">Rounded Corners</title><path
     d="m 78.000782,0 70.778098,0 c 22.45997,0 33.68995,0 45.77855,3.822386 13.19873,4.803948 23.59589,15.201101 28.39985,28.399841 3.82238,12.0886 3.82238,23.318587 3.82238,45.778555 l 0,70.778098 c 0,22.45997 0,33.68995 -3.82238,45.77855 -4.80396,13.19875 -15.2011,23.59589 -28.39985,28.39985 -12.0886,3.82238 -23.31858,3.82238 -45.77855,3.82238 l -70.778098,0 c -22.459968,0 -33.689955,0 -45.778543,-3.82238 C 19.023496,218.15332 8.626338,207.75618 3.822387,194.55743 0,182.46883 0,171.23885 0,148.77888 L 0,78.000782 C 0,55.540814 0,44.310827 3.822386,32.222239 8.626337,19.023493 19.023496,8.626334 32.222241,3.822386 44.310827,0 55.540814,0 78.000782,0 l 0,0"
     id="path5"
     inkscape:connector-curvature="0"
     style="fill:#333333;fill-opacity:1" /><path
     d="m 157.61812,138.86489 c -1.61992,3.74234 -3.53738,7.18716 -5.75898,10.35427 -3.02826,4.31758 -5.50772,7.30616 -7.41858,8.96576 -2.96214,2.7241 -6.13586,4.11922 -9.53438,4.19857 -2.43979,0 -5.3821,-0.69425 -8.80707,-2.10259 -3.43622,-1.40172 -6.59407,-2.09598 -9.4815,-2.09598 -3.02825,0 -6.27603,0.69426 -9.74993,2.09598 -3.4792,1.40834 -6.28199,2.14226 -8.424918,2.21499 -3.25901,0.13886 -6.507446,-1.29593 -9.749934,-4.31097 -2.069523,-1.80505 -4.658091,-4.89944 -7.759085,-9.28314 -3.327116,-4.68123 -6.062468,-10.10963 -8.205391,-16.29838 -2.294996,-6.68465 -3.445471,-13.15771 -3.445471,-19.42449 0,-7.17856 1.551156,-13.369966 4.658096,-18.558331 2.441782,-4.167498 5.690219,-7.454939 9.755886,-9.868295 4.065672,-2.413344 8.458631,-3.64316 13.189464,-3.721849 2.588555,0 5.983123,0.800712 10.201513,2.374349 4.20651,1.57892 6.90749,2.379621 8.09168,2.379621 0.88533,0 3.88582,-0.936241 8.97237,-2.802787 4.81017,-1.731004 8.86989,-2.447736 12.19569,-2.165402 9.01204,0.727305 15.78265,4.279891 20.28536,10.680228 -8.05993,4.883556 -12.04691,11.723596 -11.96757,20.498276 0.0727,6.83472 2.5522,12.52231 7.42519,17.03825 2.20838,2.09597 4.67462,3.71589 7.41857,4.86637 -0.59508,1.72572 -1.22321,3.37868 -1.89101,4.96555 z M 136.94926,57.531676 c 0,5.357051 -1.95713,10.358899 -5.85816,14.988559 -4.70769,5.503769 -10.40187,8.684101 -16.57675,8.182256 -0.0787,-0.642678 -0.12429,-1.319079 -0.12429,-2.029861 0,-5.142746 2.23879,-10.646514 6.21453,-15.146582 1.9849,-2.278471 4.50934,-4.172985 7.57065,-5.684274 3.05471,-1.488731 5.94412,-2.312055 8.66161,-2.453017 0.0794,0.716139 0.11241,1.432342 0.11241,2.142854 z"
     id="path4"
     inkscape:connector-curvature="0"
     style="opacity:0.9;fill:#ffffff;fill-opacity:1" /></svg>