<?xml version="1.0" encoding="utf-8"?>
<!-- Generator: Adobe Illustrator 23.0.1, SVG Export Plug-In . SVG Version: 6.00 Build 0)  -->
<svg version="1.1" id="Capa_1" xmlns="http://www.w3.org/2000/svg" xmlns:xlink="http://www.w3.org/1999/xlink" x="0px" y="0px"
	 viewBox="0 0 337.53 338.21" style="enable-background:new 0 0 337.53 338.21;" xml:space="preserve">
<style type="text/css">
	.st0{fill:#2B81B1;}
	.st1{fill:#FFFFFF;}
</style>
<path class="st0" d="M0.14,169.05c0.17-3.14,0.33-6.29,0.51-9.43c0.14-2.46,0.22-4.94,0.48-7.39c0.22-2.07,0.66-4.12,1-6.19
	c0.06-0.35,0.08-0.71,0.13-1.07c0.41-3.06,0.66-6.15,1.26-9.17c0.69-3.41,1.64-6.77,2.58-10.13c1.03-3.65,2.16-7.27,3.29-10.89
	c0.72-2.29,1.43-4.59,2.32-6.82c1.28-3.18,2.67-6.31,4.1-9.43c1.54-3.37,3.13-6.73,4.79-10.04c0.65-1.3,1.56-2.47,2.34-3.7
	c2.43-3.85,4.75-7.78,7.3-11.55c2.17-3.21,4.55-6.28,6.96-9.32c2.49-3.14,5.03-6.25,7.72-9.21c2.55-2.81,5.31-5.44,8.03-8.09
	c2.13-2.07,4.27-4.13,6.53-6.05c2.38-2.02,4.85-3.94,7.37-5.79c3.35-2.47,6.71-4.94,10.18-7.23c3.01-1.98,6.15-3.76,9.28-5.55
	c2.83-1.63,5.69-3.23,8.6-4.73c1.82-0.94,3.74-1.7,5.63-2.49c2.77-1.15,5.55-2.28,8.34-3.37c2.24-0.88,4.5-1.71,6.76-2.52
	c2.28-0.81,4.56-1.62,6.87-2.32c1.54-0.47,3.15-0.74,4.71-1.14c2.79-0.71,5.57-1.45,8.36-2.18c0.19-0.05,0.39-0.08,0.58-0.11
	c3.11-0.37,6.26-0.52,9.31-1.16c3.96-0.83,7.93-1.04,11.95-1.14c1.66-0.04,3.33-0.24,4.99-0.46c4.75-0.62,9.48-0.43,14.23-0.01
	c3.37,0.3,6.77,0.29,10.14,0.6c3.07,0.28,6.12,0.77,9.17,1.19c2.19,0.3,4.39,0.58,6.57,1c1.51,0.29,2.98,0.84,4.47,1.23
	c1.99,0.52,3.98,1,5.97,1.52c1.91,0.5,3.82,0.96,5.7,1.54c2.95,0.91,5.89,1.85,8.8,2.87c2.05,0.72,4.06,1.55,6.05,2.41
	c3.08,1.33,6.17,2.65,9.17,4.14c3.71,1.84,7.41,3.71,10.96,5.83c4.66,2.78,9.23,5.72,13.7,8.78c3.24,2.22,6.35,4.66,9.39,7.15
	c6.29,5.15,12.22,10.72,17.63,16.78c4.3,4.82,8.25,9.97,12.15,15.13c2.43,3.22,4.45,6.75,6.69,10.11
	c3.23,4.84,5.86,10.03,8.48,15.21c1.76,3.48,3.07,7.19,4.59,10.79c0.71,1.67,1.5,3.32,2.14,5.02c0.49,1.29,0.75,2.67,1.19,3.98
	c0.71,2.14,1.54,4.23,2.19,6.39c0.48,1.58,0.75,3.22,1.13,4.83c0.47,2,0.97,3.98,1.42,5.98c0.3,1.31,0.55,2.64,0.81,3.96
	c0.37,1.9,0.81,3.79,1.08,5.71c0.33,2.29,0.55,4.59,0.74,6.89c0.23,2.66,0.36,5.32,0.57,7.98c0.17,2.22,0.51,4.44,0.58,6.66
	c0.1,3.35,0.02,6.7,0.01,10.04c0,0.12-0.04,0.24-0.05,0.36c-0.2,3.06-0.33,6.13-0.61,9.18c-0.27,3-0.69,6-1.05,8.99
	c-0.17,1.37-0.35,2.75-0.54,4.12c-0.24,1.72-0.44,3.46-0.76,5.16c-0.31,1.64-0.77,3.24-1.15,4.87c-0.52,2.18-0.98,4.38-1.56,6.54
	c-0.55,2.06-1.19,4.1-1.81,6.14c-0.67,2.23-1.29,4.48-2.07,6.67c-0.68,1.9-1.56,3.73-2.35,5.59c-1.61,3.81-3.11,7.68-4.87,11.42
	c-1.38,2.93-3.07,5.71-4.63,8.55c-0.74,1.36-1.44,2.74-2.26,4.06c-1.52,2.45-3.05,4.9-4.69,7.28c-1.95,2.84-3.92,5.67-6.04,8.38
	c-2.59,3.31-5.26,6.57-8.05,9.71c-3.08,3.45-6.26,6.81-9.55,10.05c-2.48,2.44-5.17,4.66-7.82,6.92c-2.31,1.98-4.63,3.96-7.05,5.8
	c-2.55,1.94-5.21,3.75-7.87,5.55c-2.48,1.68-4.96,3.38-7.55,4.88c-3.14,1.82-6.39,3.46-9.61,5.16c-1.61,0.85-3.2,1.74-4.87,2.46
	c-4.9,2.12-9.78,4.28-14.76,6.2c-3.38,1.31-6.88,2.34-10.38,3.33c-2.68,0.76-5.44,1.23-8.14,1.89c-1.69,0.41-3.35,1-5.04,1.42
	c-1.04,0.26-2.12,0.34-3.18,0.5c-1.76,0.27-3.52,0.57-5.28,0.82c-2.31,0.33-4.63,0.62-6.95,0.92c-0.52,0.07-1.03,0.18-1.54,0.21
	c-3.54,0.21-7.09,0.39-10.63,0.6c-1.71,0.1-3.41,0.41-5.11,0.38c-3.55-0.07-7.09-0.28-10.63-0.47c-2.15-0.12-4.29-0.24-6.43-0.48
	c-2.41-0.27-4.8-0.68-7.2-1.03c-0.2-0.03-0.4-0.05-0.59-0.08c-2.47-0.37-4.95-0.65-7.39-1.13c-3.3-0.65-6.58-1.4-9.84-2.2
	c-3.44-0.85-6.89-1.69-10.26-2.78c-3.95-1.27-7.83-2.77-11.71-4.24c-5.43-2.06-10.7-4.5-15.79-7.31c-4.08-2.25-8.13-4.59-12.08-7.06
	c-3.05-1.9-5.93-4.08-8.9-6.12c-4.98-3.41-9.61-7.28-14.01-11.38c-4.32-4.02-8.31-8.4-12.39-12.67c-1.7-1.78-3.34-3.63-4.89-5.54
	c-1.89-2.33-3.69-4.74-5.45-7.16c-1.7-2.34-3.38-4.69-4.92-7.13c-2.12-3.34-4.16-6.74-6.13-10.18c-1.69-2.94-3.45-5.87-4.77-8.98
	c-1.41-3.33-3.26-6.46-4.24-10c-0.56-1.99-1.73-3.8-2.5-5.74c-0.52-1.31-0.77-2.73-1.19-4.08c-0.91-2.87-1.9-5.72-2.76-8.61
	c-0.48-1.63-0.76-3.31-1.16-4.96c-0.5-2.08-1.09-4.14-1.54-6.22c-0.33-1.5-0.52-3.04-0.75-4.56c-0.33-2.19-0.63-4.38-0.94-6.58
	c-0.01-0.04-0.02-0.08-0.02-0.12c-0.25-2.44-0.57-4.88-0.74-7.33c-0.25-3.5-0.36-7.01-0.59-10.51c-0.1-1.5-0.33-3-0.51-4.5
	C0.05,169.06,0.09,169.05,0.14,169.05z"/>
<path class="st1" d="M237.07,110.92c-7.5,0-15-0.13-22.5,0.05c-4.89,0.12-15.66,0.12-15.66,0.12l-90.83,141.19l-50.95-0.01
	l0.57-25.02l33.35-0.05l93.54-140.79c0,0,30.99,0.41,39.61,0.39c4.16-0.01,8.31,0,12.6-0.24c-0.72-0.58-1.42-1.19-2.17-1.74
	c-2.7-1.95-5.43-3.87-8.13-5.82c-4.65-3.37-9.29-6.75-13.93-10.14c-3.39-2.48-6.87-4.85-10.12-7.51c-3.37-2.75-4.91-6.52-4.2-10.83
	c0.78-4.72,4.28-8.77,9.4-9.94c4.2-0.96,7.58,0.5,10.82,2.91c2.7,2.01,5.49,3.92,8.23,5.89c2.7,1.95,5.37,3.93,8.06,5.88
	c2.28,1.65,4.57,3.28,6.85,4.94c2.25,1.64,4.46,3.32,6.71,4.96c2.75,2,5.52,3.98,8.28,5.97c3.98,2.88,7.97,5.74,11.94,8.64
	c3.53,2.57,7.02,5.18,10.55,7.75c4.59,3.33,9.2,6.62,13.8,9.94c0.19,0.14,0.37,0.3,0.55,0.45c1.2,0.99,1.17,1.17-0.09,2.1
	c-2.44,1.78-4.84,3.61-7.27,5.4c-4.86,3.56-9.72,7.12-14.59,10.67c-4.58,3.33-9.18,6.65-13.77,9.97c-6.9,5-13.8,10-20.69,15
	c-2.56,1.86-5.11,3.74-7.67,5.6c-4.14,3-8.26,6.03-12.44,8.97c-2.97,2.08-6.38,2.56-9.82,1.73c-2.83-0.68-5.06-2.47-6.77-4.91
	c-1.49-2.14-2.26-4.43-2.19-7.03c0.1-3.55,1.55-6.5,4.27-8.68c3.18-2.56,6.52-4.92,9.82-7.33c6.21-4.54,12.44-9.05,18.67-13.57
	c1.89-1.37,3.8-2.73,5.71-4.09c0.22-0.16,0.46-0.31,0.69-0.46C237.2,111.14,237.13,111.03,237.07,110.92z"/>
<path class="st1" d="M237.07,227.77c-7.5,0-15,0.13-22.5-0.05c-4.89-0.12-15.66-0.12-15.66-0.12L108.08,86.41l-50.95,0.01
	l0.57,25.02l33.35,0.05l93.54,140.79c0,0,30.99-0.41,39.61-0.39c4.16,0.01,8.31,0,12.6,0.24c-0.72,0.58-1.42,1.19-2.17,1.74
	c-2.7,1.95-5.43,3.87-8.13,5.82c-4.65,3.37-9.29,6.75-13.93,10.14c-3.39,2.48-6.87,4.85-10.12,7.51c-3.37,2.75-4.91,6.52-4.2,10.83
	c0.78,4.72,4.28,8.77,9.4,9.94c4.2,0.96,7.58-0.5,10.82-2.91c2.7-2.01,5.49-3.92,8.23-5.89c2.7-1.95,5.37-3.93,8.06-5.88
	c2.28-1.65,4.57-3.28,6.85-4.94c2.25-1.64,4.46-3.32,6.71-4.96c2.75-2,5.52-3.98,8.28-5.97c3.98-2.88,7.97-5.74,11.94-8.64
	c3.53-2.57,7.02-5.18,10.55-7.75c4.59-3.33,9.2-6.62,13.8-9.94c0.19-0.14,0.37-0.3,0.55-0.45c1.2-0.99,1.17-1.17-0.09-2.1
	c-2.44-1.78-4.84-3.61-7.27-5.4c-4.86-3.56-9.72-7.12-14.59-10.67c-4.58-3.33-9.18-6.65-13.77-9.97c-6.9-5-13.8-10-20.69-15
	c-2.56-1.86-5.11-3.74-7.67-5.6c-4.14-3-8.26-6.03-12.44-8.97c-2.97-2.08-6.38-2.56-9.82-1.73c-2.83,0.68-5.06,2.47-6.77,4.91
	c-1.49,2.14-2.26,4.43-2.19,7.03c0.1,3.55,1.55,6.5,4.27,8.68c3.18,2.56,6.52,4.92,9.82,7.33c6.21,4.54,12.44,9.05,18.67,13.57
	c1.89,1.37,3.8,2.73,5.71,4.09c0.22,0.16,0.46,0.31,0.69,0.46C237.2,227.54,237.13,227.66,237.07,227.77z"/>
</svg>
