<?xml version="1.0" encoding="UTF-8" standalone="no"?>
<!-- Generator: Adobe Illustrator 16.0.0, SVG Export Plug-In . SVG Version: 6.00 Build 0)  -->

<svg
   xmlns:dc="http://purl.org/dc/elements/1.1/"
   xmlns:cc="http://creativecommons.org/ns#"
   xmlns:rdf="http://www.w3.org/1999/02/22-rdf-syntax-ns#"
   xmlns:svg="http://www.w3.org/2000/svg"
   xmlns="http://www.w3.org/2000/svg"
   xmlns:sodipodi="http://sodipodi.sourceforge.net/DTD/sodipodi-0.dtd"
   xmlns:inkscape="http://www.inkscape.org/namespaces/inkscape"
   version="1.1"
   id="Capa_1"
   x="0px"
   y="0px"
   width="90.305"
   height="90.304001"
   viewBox="0 0 90.304996 90.304002"
   enable-background="new 0 0 595.28 431.292"
   xml:space="preserve"
   inkscape:version="0.91 r13725"
   sodipodi:docname="logo.svg"><metadata
     id="metadata65"><rdf:RDF><cc:Work
         rdf:about=""><dc:format>image/svg+xml</dc:format><dc:type
           rdf:resource="http://purl.org/dc/dcmitype/StillImage" /><dc:title></dc:title></cc:Work></rdf:RDF></metadata><defs
     id="defs63" /><sodipodi:namedview
     pagecolor="#ffffff"
     bordercolor="#666666"
     borderopacity="1"
     objecttolerance="10"
     gridtolerance="10"
     guidetolerance="10"
     inkscape:pageopacity="0"
     inkscape:pageshadow="2"
     inkscape:window-width="1855"
     inkscape:window-height="1056"
     id="namedview61"
     showgrid="false"
     fit-margin-top="0"
     fit-margin-left="0"
     fit-margin-right="0"
     fit-margin-bottom="0"
     inkscape:zoom="1.506201"
     inkscape:cx="114.04785"
     inkscape:cy="60.266784"
     inkscape:window-x="65"
     inkscape:window-y="24"
     inkscape:window-maximized="1"
     inkscape:current-layer="Capa_1" /><g
     id="g39"
     transform="translate(-84.921,-179.91)"><path
       d="m 151.112,202.515 -19.107,52.133 -4.076,-28.954 -28.952,-4.074 52.135,-19.105 z"
       id="path41"
       inkscape:connector-curvature="0"
       style="fill:#00a1df" /><path
       d="m 151.112,202.515 -19.107,52.133 -4.076,-28.954 0,0 23.183,-23.179 z"
       id="path43"
       inkscape:connector-curvature="0"
       style="fill:#0075c9" /></g><g
     id="g57"
     transform="translate(-84.921,-179.91)"><path
       d="m 130.074,179.91 c -24.938,0 -45.153,20.215 -45.153,45.152 0,24.937 20.215,45.152 45.153,45.152 24.938,0 45.152,-20.215 45.152,-45.152 0,-24.937 -20.214,-45.152 -45.152,-45.152 z m 0,85.972 c -22.544,0 -40.819,-18.275 -40.819,-40.819 0,-22.544 18.275,-40.819 40.819,-40.819 22.544,0 40.819,18.275 40.819,40.819 0,22.544 -18.275,40.819 -40.819,40.819 z"
       id="path59"
       inkscape:connector-curvature="0"
       style="fill:#00a1df" /></g></svg>