<?xml version="1.0" encoding="utf-8"?>
<!-- Generator: Adobe Illustrator 16.0.0, SVG Export Plug-In . SVG Version: 6.00 Build 0)  -->
<!DOCTYPE svg PUBLIC "-//W3C//DTD SVG 1.1//EN" "http://www.w3.org/Graphics/SVG/1.1/DTD/svg11.dtd">
<svg version="1.1" id="Capa_1" xmlns="http://www.w3.org/2000/svg" xmlns:xlink="http://www.w3.org/1999/xlink" x="0px" y="0px"
	 width="676px" height="105.966px" viewBox="0 0 676 105.966" enable-background="new 0 0 676 105.966" xml:space="preserve">
<rect width="676" height="105.966"/>
<rect x="113.881" y="90.832" fill="#FFFFFF" width="1.913" height="15.134"/>
<polygon fill="#FFFFFF" points="125.997,93.999 125.997,105.966 124.084,105.966 124.084,90.832 126.167,90.832 134.244,102.799 
	134.244,90.832 136.157,90.832 136.157,105.966 134.095,105.966 "/>
<g>
	<defs>
		<rect id="SVGID_1_" x="-45" y="-243.276" width="841.89" height="595.276"/>
	</defs>
	<clipPath id="SVGID_2_">
		<use xlink:href="#SVGID_1_"  overflow="visible"/>
	</clipPath>
	<path clip-path="url(#SVGID_2_)" fill="#FFFFFF" d="M143.703,90.832h4.889c4.293,0,7.779,3.4,7.779,7.566s-3.486,7.565-7.779,7.565
		h-4.889V90.832z M154.479,98.399c0-3.125-2.636-5.719-5.888-5.719h-2.997v11.437h2.997
		C151.843,104.116,154.479,101.523,154.479,98.399"/>
	<path clip-path="url(#SVGID_2_)" fill="#FFFFFF" d="M178.115,98.292c0,4.355-3.571,7.887-7.928,7.887s-7.907-3.53-7.907-7.887
		c0-4.378,3.55-7.928,7.907-7.928S178.115,93.914,178.115,98.292 M176.181,98.292c0-3.315-2.678-6.058-5.994-6.058
		c-3.316,0-5.994,2.741-5.994,6.058c0,3.295,2.678,6.016,5.994,6.016C173.503,104.308,176.181,101.587,176.181,98.292"/>
	<path clip-path="url(#SVGID_2_)" fill="#FFFFFF" d="M199.647,98.292c0,4.355-3.571,7.887-7.928,7.887s-7.907-3.53-7.907-7.887
		c0-4.378,3.55-7.928,7.907-7.928S199.647,93.914,199.647,98.292 M197.713,98.292c0-3.315-2.678-6.058-5.994-6.058
		s-5.994,2.741-5.994,6.058c0,3.295,2.678,6.016,5.994,6.016S197.713,101.587,197.713,98.292"/>
	<path clip-path="url(#SVGID_2_)" fill="#FFFFFF" d="M217.97,105.965h-2.189l-5.782-7.948h-2.168v7.948h-1.828V90.832h5.25
		c0.957,0,1.849,0.381,2.529,1.062c0.68,0.681,1.063,1.573,1.063,2.529c0,1.68-1.169,3.082-2.721,3.486L217.97,105.965z
		 M207.831,96.188h3.422c0.978,0,1.764-0.786,1.764-1.765c0-0.978-0.787-1.765-1.764-1.765h-3.422V96.188z"/>
	<path clip-path="url(#SVGID_2_)" fill="#FFFFFF" d="M233.167,90.832h5.271c0.957,0,1.871,0.382,2.551,1.062
		c0.68,0.681,1.062,1.596,1.062,2.552c0,1.997-1.637,3.593-3.613,3.593h-3.379v7.928h-1.893L233.167,90.832L233.167,90.832z
		 M240.14,94.445c0-0.956-0.766-1.767-1.701-1.767h-3.379v3.509h3.379C239.374,96.188,240.14,95.402,240.14,94.445"/>
	<path clip-path="url(#SVGID_2_)" fill="#FFFFFF" d="M263.585,98.292c0,4.355-3.571,7.887-7.929,7.887s-7.907-3.53-7.907-7.887
		c0-4.378,3.55-7.928,7.907-7.928S263.585,93.914,263.585,98.292 M261.65,98.292c0-3.315-2.679-6.058-5.994-6.058
		s-5.994,2.741-5.994,6.058c0,3.295,2.679,6.016,5.994,6.016S261.65,101.587,261.65,98.292"/>
	<path clip-path="url(#SVGID_2_)" fill="#FFFFFF" d="M273.724,105.945c-1.573-0.318-3.125-1.105-4.507-2.296l1.255-1.426
		c1.126,0.979,2.38,1.639,3.635,1.894c1.062,0.233,2.104,0.147,2.933-0.234c0.553-0.254,1.509-0.892,1.509-2.188
		c0-1.597-1.7-2.168-3.357-2.487c-0.149-0.021-2.529-0.51-3.486-1.063c-1.275-0.766-1.955-1.912-1.955-3.314
		c0-0.786,0.254-1.531,0.701-2.19c0.445-0.594,1.062-1.084,1.785-1.425c1.062-0.509,2.316-0.657,3.592-0.444
		c1.382,0.233,2.785,0.894,4.018,1.912l-1.211,1.467c-2.189-1.808-4.315-1.851-5.591-1.254c-0.872,0.403-1.382,1.148-1.382,1.913
		c0,1.445,1.232,1.997,3.188,2.423c0.808,0.191,2.487,0.469,3.485,1.042c1.383,0.766,2.105,1.956,2.105,3.423
		c0,0.872-0.234,1.679-0.723,2.381c-0.447,0.638-1.127,1.126-1.893,1.509c-0.808,0.404-1.637,0.531-2.572,0.531
		C274.743,106.114,274.233,106.05,273.724,105.945"/>
	<rect x="287.497" y="90.832" clip-path="url(#SVGID_2_)" fill="#FFFFFF" width="1.914" height="15.134"/>
	<polygon clip-path="url(#SVGID_2_)" fill="#FFFFFF" points="300.994,92.702 296.998,92.702 296.998,90.832 306.903,90.832 
		306.903,92.702 302.907,92.702 302.907,105.966 300.994,105.966 	"/>
	<rect x="314.491" y="90.832" clip-path="url(#SVGID_2_)" fill="#FFFFFF" width="1.914" height="15.134"/>
	<path clip-path="url(#SVGID_2_)" fill="#FFFFFF" d="M339.339,98.292c0,4.355-3.57,7.887-7.928,7.887
		c-4.358,0-7.907-3.53-7.907-7.887c0-4.378,3.55-7.928,7.907-7.928S339.339,93.914,339.339,98.292 M337.405,98.292
		c0-3.315-2.678-6.058-5.994-6.058c-3.316,0-5.994,2.741-5.994,6.058c0,3.295,2.678,6.016,5.994,6.016
		C334.728,104.308,337.405,101.587,337.405,98.292"/>
	<polygon clip-path="url(#SVGID_2_)" fill="#FFFFFF" points="347.927,93.999 347.927,105.966 346.014,105.966 346.014,90.832 
		348.097,90.832 356.174,102.799 356.174,90.832 358.087,90.832 358.087,105.966 356.025,105.966 	"/>
	<rect x="366.589" y="90.832" clip-path="url(#SVGID_2_)" fill="#FFFFFF" width="1.913" height="15.134"/>
	<polygon clip-path="url(#SVGID_2_)" fill="#FFFFFF" points="378.704,93.999 378.704,105.966 376.792,105.966 376.792,90.832 
		378.874,90.832 386.952,102.799 386.952,90.832 388.864,90.832 388.864,105.966 386.802,105.966 	"/>
	<path clip-path="url(#SVGID_2_)" fill="#FFFFFF" d="M410.057,96.231v6.694c-1.509,2.021-3.89,3.274-6.396,3.274
		c-4.357,0-7.908-3.552-7.908-7.93c0-4.356,3.551-7.906,7.908-7.906c2.146,0,4.145,0.849,5.611,2.338l-1.403,1.231
		c-1.105-1.104-2.614-1.698-4.208-1.698c-3.338,0-6.037,2.698-6.037,6.035c0,3.357,2.699,6.059,6.037,6.059
		c1.764,0,3.379-0.744,4.548-2.041V98.1h-4.442v-1.868H410.057z"/>
	<polygon clip-path="url(#SVGID_2_)" fill="#2095CB" points="67.318,38.272 48.211,90.405 44.135,61.451 15.183,57.377 	"/>
	<polygon clip-path="url(#SVGID_2_)" fill="#226CB0" points="67.318,38.272 48.211,90.405 44.135,61.451 	"/>
	<path clip-path="url(#SVGID_2_)" fill="#FFFFFF" d="M163.759,17.617v9.049c-7.319,0-19.739,0.022-37.259,0.066
		c-1.642,0-2.961,0.432-3.959,1.297c-0.998,0.865-1.497,1.986-1.497,3.359v6.255c0,1.376,0.499,2.495,1.497,3.36
		c0.998,0.864,2.317,1.297,3.959,1.297h28.343c3.947,0,7.307,1.188,10.08,3.56c2.771,2.374,4.158,5.245,4.158,8.616v10.445
		c0,3.37-1.387,6.232-4.158,8.583c-2.772,2.352-6.132,3.526-10.08,3.526H113.06v-9.05h39.92c1.64,0,2.96-0.432,3.958-1.297
		c0.998-0.864,1.497-1.984,1.497-3.359v-7.652c0-1.374-0.489-2.483-1.464-3.326c-0.976-0.842-2.285-1.264-3.925-1.264h-28.41
		c-3.949,0-7.309-1.188-10.08-3.561c-2.772-2.372-4.158-5.244-4.158-8.615v-9.115c0-3.371,1.386-6.243,4.158-8.616
		c2.771-2.372,6.131-3.56,10.08-3.56L163.759,17.617L163.759,17.617z"/>
	<rect x="177.065" y="2.526" clip-path="url(#SVGID_2_)" fill="#2095CB" width="10.646" height="9.648"/>
	<rect x="177.065" y="17.616" clip-path="url(#SVGID_2_)" fill="#FFFFFF" width="10.646" height="59.415"/>
	<path clip-path="url(#SVGID_2_)" fill="#FFFFFF" d="M206.407,2.526v15.092h27.212v9.646h-27.146v31.67
		c0,2.309,0.798,4.303,2.396,5.988c1.597,1.687,3.593,2.529,5.988,2.529h18.763v9.579h-20.294c-4.835,0-8.972-1.541-12.409-4.624
		c-3.438-3.083-5.156-6.797-5.156-11.145c0-17.653-0.023-36.017-0.066-58.737L206.407,2.526L206.407,2.526z"/>
	<path clip-path="url(#SVGID_2_)" fill="#FFFFFF" d="M302.281,61.263c0,4.349-1.709,8.063-5.123,11.146
		c-3.416,3.083-7.541,4.624-12.376,4.624h-26.347c-4.836,0-8.961-1.541-12.375-4.624c-3.416-3.083-5.123-6.797-5.123-11.146V17.617
		h10.711V59c0,2.439,0.887,4.448,2.662,6.021c1.773,1.576,3.992,2.362,6.652,2.362h21.225c2.662,0,4.879-0.786,6.653-2.362
		c1.774-1.572,2.661-3.581,2.661-6.021V17.617h10.779L302.281,61.263L302.281,61.263z"/>
	<path clip-path="url(#SVGID_2_)" fill="#FFFFFF" d="M347.191,17.617c2.527,0,5.056,0.698,7.584,2.096
		c2.528,1.396,4.213,3.227,5.057,5.488c0.799-2.217,2.495-4.035,5.09-5.455c2.595-1.419,5.156-2.129,7.685-2.129h20.625
		c4.834,0,8.959,1.553,12.375,4.657c3.415,3.104,5.124,6.831,5.124,11.178v43.58h-10.779V64.822v-16.9V35.713
		c0-2.438-0.876-4.458-2.627-6.054c-1.754-1.598-3.959-2.396-6.621-2.396h-16.168c-2.573,0-4.78,0.766-6.62,2.296
		c-1.842,1.53-2.762,3.45-2.762,5.755v41.718h-10.711V35.314c0-2.35-0.889-4.279-2.662-5.788c-1.774-1.507-3.992-2.263-6.652-2.263
		h-16.102c-2.662,0-4.891,0.799-6.688,2.396c-1.796,1.596-2.693,3.615-2.693,6.054c0,1.996-0.033,6.066-0.1,12.209
		c-0.067,6.144-0.057,11.777,0.033,16.9c0.088,5.123,0.109,9.192,0.066,12.209h-10.713v-43.58c0-4.347,1.719-8.073,5.156-11.178
		s7.574-4.657,12.409-4.657H347.191z"/>
	<path clip-path="url(#SVGID_2_)" fill="#2095CB" d="M46.28,15.667c-24.938,0-45.153,20.215-45.153,45.153
		c0,24.937,20.215,45.151,45.153,45.151s45.152-20.215,45.152-45.151C91.432,35.881,71.217,15.667,46.28,15.667 M46.28,101.639
		c-22.544,0-40.819-18.274-40.819-40.818C5.461,38.275,23.736,20,46.28,20s40.819,18.275,40.819,40.82
		C87.099,83.364,68.824,101.639,46.28,101.639"/>
</g>
<g>
	<path fill="#FFFFFF" d="M453.709,38.442v31.796c0,2.337,0.055,5,0.218,6.794h-4.294l-0.218-4.565h-0.108
		c-1.468,2.935-4.674,5.163-8.968,5.163c-6.359,0-11.251-5.381-11.251-13.37c-0.055-8.751,5.381-14.132,11.794-14.132
		c4.022,0,6.74,1.902,7.936,4.022h0.108V38.442H453.709z M448.926,61.434c0-0.599-0.054-1.413-0.217-2.012
		c-0.707-3.043-3.315-5.543-6.902-5.543c-4.946,0-7.882,4.348-7.882,10.164c0,5.326,2.609,9.729,7.772,9.729
		c3.207,0,6.142-2.12,7.012-5.707c0.163-0.652,0.217-1.305,0.217-2.065V61.434z"/>
	<path fill="#FFFFFF" d="M464.312,64.749c0.108,6.468,4.239,9.131,9.022,9.131c3.424,0,5.489-0.598,7.283-1.358l0.815,3.424
		c-1.686,0.761-4.565,1.631-8.751,1.631c-8.099,0-12.936-5.327-12.936-13.263c0-7.935,4.674-14.186,12.338-14.186
		c8.588,0,10.87,7.555,10.87,12.393c0,0.979-0.108,1.739-0.163,2.229H464.312z M478.334,61.324c0.055-3.043-1.25-7.772-6.631-7.772
		c-4.837,0-6.957,4.457-7.337,7.772H478.334z"/>
	<path fill="#FFFFFF" d="M490.729,50.726l5.164,14.784c0.869,2.392,1.576,4.565,2.119,6.739h0.163
		c0.598-2.174,1.359-4.348,2.229-6.739l5.109-14.784h5l-10.327,26.306h-4.565l-10-26.306H490.729z"/>
	<path fill="#FFFFFF" d="M517.201,64.749c0.108,6.468,4.239,9.131,9.022,9.131c3.424,0,5.489-0.598,7.283-1.358l0.815,3.424
		c-1.686,0.761-4.565,1.631-8.751,1.631c-8.099,0-12.936-5.327-12.936-13.263c0-7.935,4.674-14.186,12.338-14.186
		c8.588,0,10.87,7.555,10.87,12.393c0,0.979-0.108,1.739-0.163,2.229H517.201z M531.224,61.324c0.055-3.043-1.25-7.772-6.631-7.772
		c-4.837,0-6.957,4.457-7.337,7.772H531.224z"/>
	<path fill="#FFFFFF" d="M541.771,38.442h4.783v38.59h-4.783V38.442z"/>
	<path fill="#FFFFFF" d="M578.405,63.662c0,9.729-6.739,13.968-13.099,13.968c-7.12,0-12.609-5.218-12.609-13.533
		c0-8.805,5.762-13.969,13.044-13.969C573.297,50.128,578.405,55.618,578.405,63.662z M557.534,63.934
		c0,5.761,3.315,10.109,7.99,10.109c4.565,0,7.989-4.294,7.989-10.218c0-4.457-2.229-10.11-7.881-10.11
		S557.534,58.933,557.534,63.934z"/>
	<path fill="#FFFFFF" d="M584.441,59.313c0-3.37-0.108-6.087-0.218-8.587h4.294l0.218,4.511h0.108
		c1.957-3.207,5.055-5.109,9.349-5.109c6.359,0,11.142,5.381,11.142,13.371c0,9.457-5.761,14.131-11.957,14.131
		c-3.479,0-6.522-1.521-8.099-4.131h-0.108v14.295h-4.729V59.313z M589.17,66.325c0,0.706,0.108,1.358,0.218,1.956
		c0.869,3.315,3.75,5.599,7.174,5.599c5.055,0,7.99-4.131,7.99-10.164c0-5.271-2.772-9.783-7.827-9.783
		c-3.261,0-6.305,2.337-7.229,5.925c-0.163,0.598-0.326,1.304-0.326,1.956V66.325z"/>
	<path fill="#FFFFFF" d="M618.034,64.749c0.108,6.468,4.239,9.131,9.022,9.131c3.424,0,5.489-0.598,7.283-1.358l0.815,3.424
		c-1.686,0.761-4.565,1.631-8.751,1.631c-8.099,0-12.936-5.327-12.936-13.263c0-7.935,4.674-14.186,12.338-14.186
		c8.588,0,10.87,7.555,10.87,12.393c0,0.979-0.108,1.739-0.163,2.229H618.034z M632.057,61.324c0.055-3.043-1.25-7.772-6.631-7.772
		c-4.837,0-6.957,4.457-7.337,7.772H632.057z"/>
	<path fill="#FFFFFF" d="M642.604,58.933c0-3.098-0.055-5.761-0.218-8.207h4.186l0.163,5.163h0.217
		c1.196-3.533,4.077-5.761,7.283-5.761c0.544,0,0.925,0.055,1.359,0.163v4.511c-0.489-0.108-0.979-0.163-1.631-0.163
		c-3.37,0-5.761,2.554-6.413,6.142c-0.109,0.652-0.218,1.413-0.218,2.229v14.022h-4.729V58.933z"/>
	<path fill="#FFFFFF" d="M659.727,72.141c1.413,0.924,3.913,1.902,6.305,1.902c3.479,0,5.109-1.739,5.109-3.913
		c0-2.283-1.359-3.533-4.892-4.838c-4.729-1.685-6.957-4.294-6.957-7.446c0-4.239,3.424-7.718,9.076-7.718
		c2.664,0,5.001,0.761,6.468,1.631l-1.195,3.479c-1.032-0.652-2.935-1.522-5.381-1.522c-2.826,0-4.402,1.63-4.402,3.587
		c0,2.174,1.576,3.152,5,4.457c4.565,1.739,6.903,4.021,6.903,7.935c0,4.62-3.588,7.882-9.838,7.882
		c-2.881,0-5.544-0.707-7.392-1.794L659.727,72.141z"/>
</g>
</svg>
