<?xml version="1.0" encoding="UTF-8" standalone="no"?>
<!-- Generator: Adobe Illustrator 19.0.0, SVG Export Plug-In . SVG Version: 6.00 Build 0)  -->

<svg
   xmlns:dc="http://purl.org/dc/elements/1.1/"
   xmlns:cc="http://creativecommons.org/ns#"
   xmlns:rdf="http://www.w3.org/1999/02/22-rdf-syntax-ns#"
   xmlns:svg="http://www.w3.org/2000/svg"
   xmlns="http://www.w3.org/2000/svg"
   xmlns:sodipodi="http://sodipodi.sourceforge.net/DTD/sodipodi-0.dtd"
   xmlns:inkscape="http://www.inkscape.org/namespaces/inkscape"
   version="1.1"
   id="Layer_1"
   x="0px"
   y="0px"
   viewBox="0 0 458.246 458.246"
   style="enable-background:new 0 0 458.246 458.246;"
   xml:space="preserve"
   inkscape:version="0.91 r13725"
   sodipodi:docname="google-plus.svg"><metadata
     id="metadata43"><rdf:RDF><cc:Work
         rdf:about=""><dc:format>image/svg+xml</dc:format><dc:type
           rdf:resource="http://purl.org/dc/dcmitype/StillImage" /></cc:Work></rdf:RDF></metadata><defs
     id="defs41" /><sodipodi:namedview
     pagecolor="#ffffff"
     bordercolor="#666666"
     borderopacity="1"
     objecttolerance="10"
     gridtolerance="10"
     guidetolerance="10"
     inkscape:pageopacity="0"
     inkscape:pageshadow="2"
     inkscape:window-width="1855"
     inkscape:window-height="1056"
     id="namedview39"
     showgrid="false"
     inkscape:zoom="0.51500722"
     inkscape:cx="-25.242365"
     inkscape:cy="229.123"
     inkscape:window-x="65"
     inkscape:window-y="24"
     inkscape:window-maximized="1"
     inkscape:current-layer="Layer_1" /><g
     id="g3"
     style="fill:#ffffff;fill-opacity:1"><path
       style="fill:#ffffff;fill-opacity:1"
       d="M160.777,259.368h71.594c-12.567,35.53-46.603,61.004-86.45,60.71   c-48.349-0.357-88.327-39.035-90.204-87.349c-2.012-51.789,39.537-94.563,90.887-94.563c23.479,0,44.905,8.946,61.058,23.605   c3.826,3.473,9.65,3.495,13.413-0.047l26.296-24.749c4.112-3.871,4.127-10.408,0.027-14.292   c-25.617-24.269-59.981-39.396-97.876-40.136C68.696,80.969,0.567,147.238,0.004,228.078   c-0.568,81.447,65.285,147.649,146.6,147.649c78.199,0,142.081-61.229,146.36-138.358c0.114-0.967,0.189-33.648,0.189-33.648   H160.777c-5.426,0-9.824,4.398-9.824,9.824v35.999C150.953,254.97,155.352,259.368,160.777,259.368z"
       id="path5" /><path
       style="fill:#ffffff;fill-opacity:1"
       d="M414.464,206.99v-35.173c0-4.755-3.854-8.609-8.609-8.609h-29.604c-4.755,0-8.609,3.854-8.609,8.609   v35.173h-35.173c-4.755,0-8.609,3.854-8.609,8.609v29.604c0,4.755,3.854,8.609,8.609,8.609h35.173v35.173   c0,4.755,3.854,8.609,8.609,8.609h29.604c4.755,0,8.609-3.854,8.609-8.609v-35.173h35.173c4.755,0,8.609-3.854,8.609-8.609v-29.604   c0-4.755-3.854-8.609-8.609-8.609L414.464,206.99L414.464,206.99z"
       id="path7" /></g><g
     id="g9" /><g
     id="g11" /><g
     id="g13" /><g
     id="g15" /><g
     id="g17" /><g
     id="g19" /><g
     id="g21" /><g
     id="g23" /><g
     id="g25" /><g
     id="g27" /><g
     id="g29" /><g
     id="g31" /><g
     id="g33" /><g
     id="g35" /><g
     id="g37" /></svg>