<?xml version="1.0" encoding="UTF-8" standalone="no"?>
<!-- Generator: Adobe Illustrator 16.0.0, SVG Export Plug-In . SVG Version: 6.00 Build 0)  -->

<svg
   xmlns:dc="http://purl.org/dc/elements/1.1/"
   xmlns:cc="http://creativecommons.org/ns#"
   xmlns:rdf="http://www.w3.org/1999/02/22-rdf-syntax-ns#"
   xmlns:svg="http://www.w3.org/2000/svg"
   xmlns="http://www.w3.org/2000/svg"
   xmlns:sodipodi="http://sodipodi.sourceforge.net/DTD/sodipodi-0.dtd"
   xmlns:inkscape="http://www.inkscape.org/namespaces/inkscape"
   version="1.1"
   id="Layer_1"
   x="0px"
   y="0px"
   width="154.8943"
   height="154.8943"
   viewBox="0 0 154.8943 154.8943"
   xml:space="preserve"
   inkscape:version="0.91 r13725"
   sodipodi:docname="java_icon.svg"><metadata
     id="metadata77"><rdf:RDF><cc:Work
         rdf:about=""><dc:format>image/svg+xml</dc:format><dc:type
           rdf:resource="http://purl.org/dc/dcmitype/StillImage" /><dc:title></dc:title></cc:Work></rdf:RDF></metadata><defs
     id="defs75" /><sodipodi:namedview
     pagecolor="#ffffff"
     bordercolor="#666666"
     borderopacity="1"
     objecttolerance="10"
     gridtolerance="10"
     guidetolerance="10"
     inkscape:pageopacity="0"
     inkscape:pageshadow="2"
     inkscape:window-width="1855"
     inkscape:window-height="1056"
     id="namedview73"
     showgrid="false"
     fit-margin-top="0"
     fit-margin-left="0"
     fit-margin-right="0"
     fit-margin-bottom="0"
     inkscape:zoom="3.2021836"
     inkscape:cx="97.059523"
     inkscape:cy="82.716777"
     inkscape:window-x="65"
     inkscape:window-y="24"
     inkscape:window-maximized="1"
     inkscape:current-layer="Layer_1" /><style
     type="text/css"
     id="style3"><![CDATA[
	.st0{fill:#E76F00;}
	.st1{opacity:0.6;fill:#878787;}
]]></style><circle
     style="opacity:1;fill:#1b6793;fill-opacity:1;stroke:none;stroke-width:5;stroke-miterlimit:4;stroke-dasharray:none;stroke-opacity:1"
     id="path4215"
     cx="77.447151"
     cy="77.447151"
     r="77.447151" /><g
     id="g4205"
     style="opacity:1;fill:#ffffff;fill-opacity:1"
     transform="translate(-133.49138,-1.5811257)"><path
       id="path21"
       d="m 196.57,97.97 c 0,0 -3.91,2.27 2.78,3.04 8.11,0.93 12.25,0.79 21.19,-0.9 0,0 2.35,1.47 5.63,2.75 -20.03,8.59 -45.33,-0.5 -29.6,-4.89"
       class="st1"
       style="opacity:0.9;fill:#ffffff;fill-opacity:1"
       inkscape:connector-curvature="0" /><path
       id="path23"
       d="m 194.12,86.77 c 0,0 -4.38,3.25 2.31,3.94 8.66,0.89 15.5,0.97 27.33,-1.31 0,0 1.64,1.66 4.21,2.57 -24.2,7.07 -51.18,0.55 -33.85,-5.2"
       class="st1"
       style="opacity:0.9;fill:#ffffff;fill-opacity:1"
       inkscape:connector-curvature="0" /><path
       id="path25"
       d="m 214.76,67.76 c 4.94,5.68 -1.3,10.8 -1.3,10.8 0,0 12.53,-6.47 6.78,-14.57 -5.38,-7.55 -9.5,-11.31 12.82,-24.25 0,0 -35.03,8.75 -18.3,28.02"
       class="st1"
       style="opacity:0.9;fill:#ffffff;fill-opacity:1"
       inkscape:connector-curvature="0" /><path
       id="path27"
       d="m 241.25,106.25 c 0,0 2.89,2.39 -3.19,4.23 -11.56,3.5 -48.12,4.56 -58.27,0.14 -3.65,-1.59 3.2,-3.79 5.35,-4.25 2.25,-0.49 3.53,-0.4 3.53,-0.4 -4.06,-2.86 -26.24,5.62 -11.27,8.04 40.84,6.63 74.44,-2.98 63.85,-7.76"
       class="st1"
       style="opacity:0.9;fill:#ffffff;fill-opacity:1"
       inkscape:connector-curvature="0" /><path
       id="path29"
       d="m 198.45,75.16 c 0,0 -18.6,4.42 -6.58,6.02 5.07,0.68 15.18,0.52 24.6,-0.26 7.7,-0.65 15.42,-2.03 15.42,-2.03 0,0 -2.71,1.16 -4.68,2.5 -18.88,4.97 -55.36,2.66 -44.86,-2.42 8.88,-4.3 16.1,-3.81 16.1,-3.81"
       class="st1"
       style="opacity:0.9;fill:#ffffff;fill-opacity:1"
       inkscape:connector-curvature="0" /><path
       id="path31"
       d="m 231.81,93.81 c 19.2,-9.98 10.32,-19.56 4.12,-18.27 -1.52,0.32 -2.2,0.59 -2.2,0.59 0,0 0.56,-0.88 1.64,-1.27 12.26,-4.31 21.68,12.71 -3.96,19.45 0.01,0 0.31,-0.27 0.4,-0.5"
       class="st1"
       style="opacity:0.9;fill:#ffffff;fill-opacity:1"
       inkscape:connector-curvature="0" /><path
       id="path33"
       d="m 220.24,18.84 c 0,0 10.63,10.63 -10.08,26.99 -16.61,13.12 -3.79,20.6 -0.01,29.14 -9.7,-8.75 -16.81,-16.45 -12.04,-23.62 7.01,-10.51 26.42,-15.62 22.13,-32.51"
       class="st1"
       style="opacity:0.9;fill:#ffffff;fill-opacity:1"
       inkscape:connector-curvature="0" /><path
       id="path35"
       d="m 200.34,120.84 c 18.43,1.18 46.72,-0.65 47.39,-9.37 0,0 -1.29,3.31 -15.23,5.93 -15.73,2.96 -35.12,2.61 -46.63,0.72 0.01,-0.01 2.36,1.94 14.47,2.72"
       class="st1"
       style="opacity:0.9;fill:#ffffff;fill-opacity:1"
       inkscape:connector-curvature="0" /></g><g
     id="g37"
     transform="translate(-135.67738,-2.0227661)" /><g
     id="g39"
     transform="translate(-135.67738,-2.0227661)" /><g
     id="g41"
     transform="translate(-135.67738,-2.0227661)" /><g
     id="g43"
     transform="translate(-135.67738,-2.0227661)" /><g
     id="g45"
     transform="translate(-135.67738,-2.0227661)" /><g
     id="g47"
     transform="translate(-135.67738,-2.0227661)" /><g
     id="g49"
     transform="translate(-135.67738,-2.0227661)" /><g
     id="g51"
     transform="translate(-135.67738,-2.0227661)" /><g
     id="g53"
     transform="translate(-135.67738,-2.0227661)" /><g
     id="g55"
     transform="translate(-135.67738,-2.0227661)" /><g
     id="g57"
     transform="translate(-135.67738,-2.0227661)" /><g
     id="g59"
     transform="translate(-135.67738,-2.0227661)" /><g
     id="g61"
     transform="translate(-135.67738,-2.0227661)" /><g
     id="g63"
     transform="translate(-135.67738,-2.0227661)" /><g
     id="g65"
     transform="translate(-135.67738,-2.0227661)" /><g
     id="g67"
     transform="translate(-135.67738,-2.0227661)" /><g
     id="g69"
     transform="translate(-135.67738,-2.0227661)" /><g
     id="g71"
     transform="translate(-135.67738,-2.0227661)" /></svg>