<?xml version="1.0" encoding="UTF-8" standalone="no"?>
<!-- Generator: Adobe Illustrator 19.2.0, SVG Export Plug-In . SVG Version: 6.00 Build 0)  -->

<svg
   xmlns:dc="http://purl.org/dc/elements/1.1/"
   xmlns:cc="http://creativecommons.org/ns#"
   xmlns:rdf="http://www.w3.org/1999/02/22-rdf-syntax-ns#"
   xmlns:svg="http://www.w3.org/2000/svg"
   xmlns="http://www.w3.org/2000/svg"
   xmlns:sodipodi="http://sodipodi.sourceforge.net/DTD/sodipodi-0.dtd"
   xmlns:inkscape="http://www.inkscape.org/namespaces/inkscape"
   version="1.1"
   id="Capa_2"
   x="0px"
   y="0px"
   viewBox="0 0 348.9 407.1"
   style="enable-background:new 0 0 348.9 407.1;"
   xml:space="preserve"
   inkscape:version="0.91 r13725"
   sodipodi:docname="api_rest.svg"><metadata
     id="metadata11"><rdf:RDF><cc:Work
         rdf:about=""><dc:format>image/svg+xml</dc:format><dc:type
           rdf:resource="http://purl.org/dc/dcmitype/StillImage" /></cc:Work></rdf:RDF></metadata><defs
     id="defs9" /><sodipodi:namedview
     pagecolor="#ffffff"
     bordercolor="#666666"
     borderopacity="1"
     objecttolerance="10"
     gridtolerance="10"
     guidetolerance="10"
     inkscape:pageopacity="0"
     inkscape:pageshadow="2"
     inkscape:window-width="1855"
     inkscape:window-height="1056"
     id="namedview7"
     showgrid="false"
     inkscape:zoom="0.57971014"
     inkscape:cx="-51.525006"
     inkscape:cy="203.55"
     inkscape:window-x="65"
     inkscape:window-y="24"
     inkscape:window-maximized="1"
     inkscape:current-layer="Capa_2" /><style
     type="text/css"
     id="style3">
	.st0{fill:#333333;}
</style><path
     class="st0"
     d="M264,151.3c-10.3,0-19.9,2.4-28.9,5.9C225,121,192.9,94.1,153.5,94.1c-47.3,0-85.9,38.6-85.9,85.9  c0,1.4,0.2,2.7,0.3,4.1c-0.1,0-0.2,0-0.3,0c-36,0-65.4,29.4-65.4,65.4c0,36,29.4,65.4,65.4,65.4H264c45.1,0,81.8-36.7,81.8-81.8  S309.1,151.3,264,151.3z M136.1,251l-4,3.4l-24.1-28.7l-1.4-1.7l1.4-1.7l24.1-28.7l4,3.4l-22.5,27L136.1,251z M158.2,269.3l-4.9-1.8  l31.3-88.8l4.9,1.8L158.2,269.3z M234.9,225.7l-24.1,28.7l-4-3.4l22.5-27l-22.5-27l4-3.4l24.1,28.7l1.4,1.7L234.9,225.7z"
     id="path5"
     style="fill:#504f4d;fill-opacity:1" /></svg>