<?xml version="1.0" encoding="UTF-8" standalone="no"?>
<svg
   xmlns:dc="http://purl.org/dc/elements/1.1/"
   xmlns:cc="http://creativecommons.org/ns#"
   xmlns:rdf="http://www.w3.org/1999/02/22-rdf-syntax-ns#"
   xmlns:svg="http://www.w3.org/2000/svg"
   xmlns="http://www.w3.org/2000/svg"
   xmlns:sodipodi="http://sodipodi.sourceforge.net/DTD/sodipodi-0.dtd"
   xmlns:inkscape="http://www.inkscape.org/namespaces/inkscape"
   version="1.0"
   width="410"
   height="390"
   viewBox="0 0 4100 3900"
   preserveAspectRatio="xMidYMid meet"
   id="svg2"
   inkscape:version="0.91 r13725"
   sodipodi:docname="compute-your-location.svg">
  <metadata
     id="metadata16">
    <rdf:RDF>
      <cc:Work
         rdf:about="">
        <dc:format>image/svg+xml</dc:format>
        <dc:type
           rdf:resource="http://purl.org/dc/dcmitype/StillImage" />
        <dc:title />
      </cc:Work>
    </rdf:RDF>
  </metadata>
  <defs
     id="defs14" />
  <sodipodi:namedview
     pagecolor="#ffffff"
     bordercolor="#666666"
     borderopacity="1"
     objecttolerance="10"
     gridtolerance="10"
     guidetolerance="10"
     inkscape:pageopacity="0"
     inkscape:pageshadow="2"
     inkscape:window-width="1920"
     inkscape:window-height="1056"
     id="namedview12"
     showgrid="false"
     inkscape:zoom="1.668772"
     inkscape:cx="111.57723"
     inkscape:cy="254.74489"
     inkscape:window-x="1920"
     inkscape:window-y="24"
     inkscape:window-maximized="1"
     inkscape:current-layer="g4203"
     fit-margin-top="0"
     fit-margin-left="0"
     fit-margin-right="0"
     fit-margin-bottom="0" />
  <g
     id="g4203"
     transform="matrix(1.0120479,0,0,1.0120479,173.78048,0.33570628)">
    <g
       transform="translate(-167.66871,-121.28645)"
       style="fill:#504f4d;stroke:none"
       id="layer1">
      <path
         inkscape:connector-curvature="0"
         id="path5"
         d="m 2574.1211,3950.6386 c -63,-21.4661 -170,-71.2283 -170,-78.0584 0,-1.9515 15,-42.9322 34,-91.7187 l 34,-88.7915 -47,-36.102 c -25,-20.4903 -62,-51.7137 -82,-69.2769 l -36,-33.1748 -54,30.2476 c -30,17.5632 -68,40.005 -86,49.7623 l -31,19.5146 -27,-34.1506 -27,-35.1263 30,-45.8593 c 17,-26.3447 67,-105.3789 113,-175.6315 45,-71.2283 85,-129.7722 90,-129.7722 4,0 25,31.2234 46,70.2526 74,138.5538 235,258.5686 394,295.6464 82,18.5389 228,18.5389 304,0 176,-43.9079 330,-164.8985 406,-320.0396 30,-60.4953 45,-110.2576 57,-177.583 14,-83.9128 14,-101.476 0,-185.3888 -41,-245.8841 -218,-435.1758 -463,-497.6226 -43,-11.7087 -95,-14.6359 -180,-12.6845 -140,3.9029 -134,12.6845 -79,-116.1119 19,-43.9079 46,-112.209 60,-151.2382 14,-39.0293 28,-78.0585 31,-85.8643 8,-18.5389 10,-27.3205 21,-68.3012 6,-18.5389 21,-76.107 35,-126.8449 14,-50.738 33,-140.5052 43,-200.0248 16,-107.3304 17,-107.3304 67,-160.9955 71,-76.107 125,-190.2675 145,-307.3552 14,-83.9128 14,-101.4759 0,-185.3888 -23,-138.55376 -76,-240.02974 -176,-336.62706 -122,-118.0634 -262,-175.6315 -432,-175.6315 -83,0 -87,-0.97573 -195,-54.64091 -60,-29.27192 -110,-58.54384 -110,-64.39822 0,-6.83011 28,-20.49034 62,-31.22338 l 62,-19.51461 3,-97.57305 3,-98.54879 159,-2.92719 c 108,-1.95146 163,0.97573 172,8.78157 10,7.80585 14,36.10203 14,102.45171 l 0,90.74294 57,15.61169 c 32,8.78158 74,24.39327 95,35.1263 20,9.75731 41,18.53888 45,18.53888 5,0 37,-33.17484 71,-73.17979 l 63,-74.15552 61,41.95641 c 71,48.78653 198,160.99554 198,175.6315 0,5.85438 -21,35.1263 -48,65.37395 -82,94.64586 -79,80.98563 -33,149.28677 23,34.15057 46,75.13126 53,91.71867 l 11,29.27192 95,-17.56315 c 53,-9.7573 100,-13.66023 104,-9.7573 15,14.63595 49,163.92273 55,242.95696 7,93.6701 11,89.7672 -117,112.209 l -75,12.6845 -7,66.3497 c -3,37.0777 -11,80.0099 -17,96.5973 -6,16.5874 -11,33.1748 -11,38.0535 0,3.9029 36,27.3205 79,51.7137 44,24.3933 82,48.7865 86,54.6409 15,23.4176 -146,282.9619 -176,282.9619 -5,0 -46,-20.4904 -90,-44.8836 -70,-39.0292 -82,-42.9322 -92,-30.2477 -13,16.5875 -95,84.8886 -127,107.3304 -20,13.6602 -20,13.6602 10,99.5245 17,46.8351 29,91.7187 26,99.5245 -3,7.8059 -34,26.3448 -68,41.9564 l -63,28.2962 55,0.9758 c 31,0 61,4.8786 68,11.7087 8,7.8059 12,44.8836 12,101.476 l 0,90.7429 57,15.6117 c 32,8.7816 74,24.3933 95,35.1263 20,9.7573 41,18.5389 45,18.5389 5,0 37,-33.1748 71,-73.1798 l 63,-74.1555 61,41.9564 c 71,48.7865 198,160.9956 198,175.6315 0,5.8544 -21,35.1263 -48,65.374 -82,94.6458 -79,80.9856 -33,149.2867 23,34.1506 46,75.1313 53,91.7187 l 11,29.2719 91,-16.5874 c 50,-9.7573 94,-17.5631 99,-17.5631 20,-1.9515 57,184.413 57,287.8405 0,58.5438 11,51.7137 -115,74.1555 l -70,12.6845 -7,66.3497 c -3,37.0777 -11,80.0099 -17,96.5973 -6,16.5874 -11,33.1748 -11,38.0535 0,3.9029 36,27.3204 79,51.7137 44,24.3933 82,48.7865 86,54.6409 15,23.4175 -146,282.9619 -176,282.9619 -5,0 -46,-20.4904 -90,-44.8836 -70,-39.0293 -82,-42.9322 -92,-30.2477 -13,16.5874 -95,84.8886 -127,107.3304 -20,13.6602 -20,13.6602 12,104.4031 l 32,89.7673 -22,18.5388 c -40,31.2234 -184,80.0099 -248,84.8886 l -61,3.9029 -30,-80.9856 -30,-80.9857 -110,-0.9757 -110,0 -28,80.0099 -28,80.9857 -51,0 c -28,-0.9758 -80,-10.7331 -116,-23.4176 z" />
      <path
         inkscape:connector-curvature="0"
         id="path7"
         d="m 842.78805,2991 c -74,-26 -185,-77 -185,-85 0,-2 15,-44 34,-94 l 34,-91 -47,-37 c -25,-21 -62,-53 -82,-71 l -36,-34 -54,31 c -30,18 -68,41 -86,52 l -32,19 -46,-63 c -44,-59 -125,-212 -125,-235 0,-6 37,-32 83,-57 l 83,-47 -18,-87 c -10,-48 -18,-96 -18,-108 0,-18 -10,-22 -73,-33 -115,-20 -107,-13 -107,-89 0,-77 24,-232 40,-262 7,-14 18,-19 33,-16 162,34 171,34 187,-5 7,-17 31,-58 52,-91 l 39,-60 -61,-73 c -33,-40 -60,-77 -60,-82 0,-14 121,-128 190,-178 l 65,-47 25,29 c 14,16 43,50 65,76 l 40,47 90,-35 c 50,-19 95,-34 102,-35 9,0 13,-31 15,-103 l 3,-102 37.99995,-3 c 46,-4 54,11 36,76 -7,26 -15,105 -18,176 l -6,130 -54.99995,16 c -97,29 -199,90 -271,162 -237,237 -237,640 0,876 78,78 192,143 291.99995,167 111,26 275,17 370,-20 13,-5 31,21 84,127 37,73 79,152 92,176 l 25,42 -45,20 c -63,28 -170,55 -189,48 -9,-4 -29,-44 -46,-89 l -29,-83 -110,-1 -109,0 -30,85 c -28.99995,84 -29.99995,85 -63.99995,87 -19,1 -71,-10 -115,-26 z" />
    </g>
    <g
       transform="translate(-167.66871,-121.28645)"
       style="fill:#1aa5db;stroke:none;fill-opacity:1"
       id="layer2">
      <path
         inkscape:connector-curvature="0"
         id="path10"
         d="M 1933,3605 C 1846,3485 1646,3168 1538,2980 1155,2312 960,1765 960,1362 c 0,-275 97,-515 288,-714 142,-147 309,-245 499,-294 137,-35 349,-35 486,0 192,49 360,148 501,297 276,290 351,653 229,1109 -14,52 -29,109 -33,125 -23,88 -117,337 -176,463 -13,29 -24,55 -24,58 0,7 -179,365 -220,439 -169,308 -487,814 -517,823 -7,2 -34,-26 -60,-63 z m 200,-1831 c 115,-36 224,-138 267,-251 34,-86 38,-212 12,-300 -65,-212 -268,-338 -491,-305 -143,21 -273,119 -333,249 -61,134 -47,315 32,436 109,163 318,233 513,171 z"
         style="fill:#1aa5db;fill-opacity:1" />
    </g>
    <path
       sodipodi:nodetypes="csscc"
       inkscape:connector-curvature="0"
       id="path4171"
       d="m 1825.1655,3546.8342 c 77.2813,21.3592 781.3874,-1065.4101 946.5119,-1742.8877 167.611,-687.6799 45.0947,-1192.64166 -436.2404,-1478.44356 -146.3066,-86.8724 -323.2878,-119.6072 -554.7631,-119.7175 z"
       style="fill:#1793c4;fill-opacity:1;fill-rule:evenodd;stroke:none;stroke-width:10px;stroke-linecap:butt;stroke-linejoin:miter;stroke-opacity:1" />
    <circle
       r="525.42371"
       cy="1302.4423"
       cx="1815.3822"
       id="path4150"
       style="opacity:1;fill:#ffffff;fill-opacity:1;stroke:none;stroke-width:0.03;stroke-linecap:square;stroke-miterlimit:4;stroke-dasharray:none;stroke-opacity:1" />
  </g>
</svg>
