<?xml version="1.0" encoding="UTF-8" standalone="no"?>
<svg
   xmlns:dc="http://purl.org/dc/elements/1.1/"
   xmlns:cc="http://creativecommons.org/ns#"
   xmlns:rdf="http://www.w3.org/1999/02/22-rdf-syntax-ns#"
   xmlns:svg="http://www.w3.org/2000/svg"
   xmlns="http://www.w3.org/2000/svg"
   xmlns:sodipodi="http://sodipodi.sourceforge.net/DTD/sodipodi-0.dtd"
   xmlns:inkscape="http://www.inkscape.org/namespaces/inkscape"
   version="1.0"
   width="410"
   height="390"
   viewBox="0 0 4100 3900"
   preserveAspectRatio="xMidYMid meet"
   id="svg2"
   inkscape:version="0.91 r13725"
   sodipodi:docname="show-floorplants-and-pois.svg">
  <metadata
     id="metadata14">
    <rdf:RDF>
      <cc:Work
         rdf:about="">
        <dc:format>image/svg+xml</dc:format>
        <dc:type
           rdf:resource="http://purl.org/dc/dcmitype/StillImage" />
        <dc:title />
      </cc:Work>
    </rdf:RDF>
  </metadata>
  <defs
     id="defs12" />
  <sodipodi:namedview
     pagecolor="#ffffff"
     bordercolor="#666666"
     borderopacity="1"
     objecttolerance="10"
     gridtolerance="10"
     guidetolerance="10"
     inkscape:pageopacity="0"
     inkscape:pageshadow="2"
     inkscape:window-width="1855"
     inkscape:window-height="1056"
     id="namedview10"
     showgrid="false"
     inkscape:zoom="0.834386"
     inkscape:cx="314.90762"
     inkscape:cy="225.82164"
     inkscape:window-x="65"
     inkscape:window-y="24"
     inkscape:window-maximized="1"
     inkscape:current-layer="g4186"
     fit-margin-top="0"
     fit-margin-left="0"
     fit-margin-right="0"
     fit-margin-bottom="0" />
  <g
     id="g4186"
     transform="matrix(1.0744969,0,0,1.0744968,26.864769,0.64155532)">
    <g
       transform="matrix(1,0,0,0.91653837,2.4907051,-36.656916)"
       style="fill:#504f4d;stroke:none"
       id="layer1-3">
      <path
         inkscape:connector-curvature="0"
         id="path5-6"
         d="M 695,3393 C -82,2613 0,2701 0,2647 c 0,-25 3,-47 8,-49 4,-1 62,-60 130,-130 91,-94 121,-131 115,-142 -4,-8 -63,-71 -130,-139 C 5,2067 0,2060 0,2020 c 0,-40 5,-47 122,-167 68,-68 127,-131 131,-139 6,-11 -24,-48 -115,-142 C 70,1502 12,1444 8,1442 -8,1435 0,1350 18,1331 54,1292 1210,133 1258,88 c 44,-41 56,-48 92,-48 49,0 43,-5 346,300 217,217 225,229 189,283 -8,12 -23,60 -34,107 -18,78 -37,110 -65,110 -5,0 -103,-92 -216,-205 -113,-113 -212,-205 -220,-205 -8,0 -231,216 -495,480 l -480,480 480,480 c 264,264 487,480 495,480 8,0 137,-121 285,-270 192,-192 276,-270 292,-270 29,0 44,26 78,127 14,46 31,85 36,88 5,4 9,18 9,33 0,38 -662,702 -700,702 -20,0 -113,-88 -440,-415 -228,-228 -422,-415 -430,-415 -9,0 -36,20 -60,45 l -45,45 480,480 c 264,264 487,480 495,480 8,0 177,-162 375,-360 328,-329 363,-360 390,-358 24,2 35,12 54,48 51,96 83,165 84,184 3,31 -870,896 -903,896 -19,0 -120,-95 -440,-415 -229,-228 -423,-415 -432,-415 -8,0 -35,21 -58,46 l -43,46 479,479 c 263,264 486,479 494,479 8,0 227,-211 485,-470 378,-379 475,-470 496,-470 21,0 31,10 54,53 16,28 41,72 57,96 55,88 88,46 -507,644 l -535,537 -50,0 -50,0 -605,-607 z" />
    </g>
    <g
       id="layer2-3"
       style="fill:#1aa5db;stroke:none;fill-opacity:1"
       transform="translate(750.19743,-274.90608)">
      <path
         sodipodi:nodetypes="ccscccccccsccccccc"
         id="path10-7"
         d="M 1933,3605 C 1846,3485 1646,3168 1538,2980 1155,2312 960,1765 960,1362 c 0,-275 97,-515 288,-714 142,-147 309,-245 499,-294 137,-35 349,-35 486,0 192,49 360,148 501,297 276,290 351,653 229,1109 -14,52 -29,109 -33,125 -23,88 -117,337 -176,463 -13,29 -24,55 -24,58 0,7 -179,365 -220,439 -169,308 -487,814 -517,823 -7,2 -34,-26 -60,-63 z m 200,-1831 c 115,-36 224,-138 267,-251 34,-86 38,-212 12,-300 -279,551 36.9254,82.2144 -279,551 z"
         inkscape:connector-curvature="0"
         style="fill:#1aa5db;fill-opacity:1" />
    </g>
    <path
       sodipodi:nodetypes="csscc"
       inkscape:connector-curvature="0"
       id="path4171-6"
       d="m 2743.0317,3393.2146 c 77.2813,21.3591 781.3874,-1065.4101 946.5119,-1742.8877 C 3857.1546,962.64704 3734.6383,457.68522 3253.3032,171.88332 3106.9966,85.010919 2930.0154,52.276119 2698.54,52.165819 Z"
       style="fill:#1793c4;fill-opacity:1;fill-rule:evenodd;stroke:none;stroke-width:10px;stroke-linecap:butt;stroke-linejoin:miter;stroke-opacity:1" />
    <g
       transform="matrix(0.42968347,0,0,0.42968347,873.78478,3212.8387)"
       id="g4167">
      <rect
         style="opacity:1;fill:#ffffff;fill-opacity:1;stroke:#000000;stroke-width:0.33144116;stroke-linecap:square;stroke-miterlimit:4;stroke-dasharray:none;stroke-opacity:1"
         id="rect4163"
         width="275.62036"
         height="2750.4941"
         x="3463.6404"
         y="-5599.8579"
         rx="0" />
      <path
         style="fill:#ffffff;fill-opacity:1;fill-rule:evenodd;stroke:none;stroke-width:10px;stroke-linecap:butt;stroke-linejoin:miter;stroke-opacity:1"
         d="m 3727.2917,-5474.0323 c 1737.8047,0 1737.8047,0 1737.8047,0 l -710.1029,710.1029 695.1218,695.1219 -1728.8161,0 z"
         id="path4165"
         inkscape:connector-curvature="0" />
    </g>
  </g>
</svg>
